<svg xmlns="http://www.w3.org/2000/svg" viewBox="0 0 129.82 38.24"><defs><style>.cls-1{fill:#231815;}.cls-2{fill:#df2310;}.cls-3{fill:#fff;}</style></defs><title>logo資產 14</title><g id="圖層_2" data-name="圖層 2"><g id="top_bar_effect" data-name="top bar effect"><path class="cls-1" d="M46.24,34.78a3.06,3.06,0,0,1-1,2.43,4,4,0,0,1-2.71.85H39V27.72h3.67a3.49,3.49,0,0,1,2.23.55,1.88,1.88,0,0,1,.66,1.53,2.1,2.1,0,0,1-.41,1.38,2,2,0,0,1-1.25.66,2.7,2.7,0,0,1,1.72.89A3,3,0,0,1,46.24,34.78Zm-2.92-4.41a1.09,1.09,0,0,0-.33-.89,1.53,1.53,0,0,0-1-.27H41.2v2.28H42a1.36,1.36,0,0,0,1-.31A1.13,1.13,0,0,0,43.32,30.37Zm.61,4.29a1.85,1.85,0,0,0-.45-1.32A2,2,0,0,0,42,32.86H41.2v3.71h.91a1.76,1.76,0,0,0,1.41-.49A2.17,2.17,0,0,0,43.93,34.66Z"/><path class="cls-1" d="M54.38,38.06H52.33l0-1a1.86,1.86,0,0,1-.85.81,2.91,2.91,0,0,1-1.39.31,2.76,2.76,0,0,1-2-.65,2.73,2.73,0,0,1-.67-2v-.14a2.46,2.46,0,0,1,.9-2,3.8,3.8,0,0,1,2.41-.71,3,3,0,0,1,.9.13,1.57,1.57,0,0,1,.65.33v-.78a.81.81,0,0,0-.37-.68,1.65,1.65,0,0,0-1-.29,4.66,4.66,0,0,0-1.3.17,3.85,3.85,0,0,0-1,.4V30.55a8.23,8.23,0,0,1,1.21-.38A6.81,6.81,0,0,1,51.4,30a3.17,3.17,0,0,1,2.25.69,2.91,2.91,0,0,1,.73,2.21Zm-2.1-2.65V35.2A1.61,1.61,0,0,0,52,34.11a1.28,1.28,0,0,0-1-.37,1.37,1.37,0,0,0-1,.35,1.53,1.53,0,0,0-.36,1.13v.21A1.26,1.26,0,0,0,50,36.5a1.66,1.66,0,0,0,1,.27,1.4,1.4,0,0,0,.91-.33A1.24,1.24,0,0,0,52.28,35.41Z"/><path class="cls-1" d="M63.2,38.06H61V32.53a.81.81,0,0,0-.27-.58,1,1,0,0,0-.75-.27,1.7,1.7,0,0,0-.83.2,2.18,2.18,0,0,0-.61.51v5.67h-2.2V30.18h2.11l0,1.25a2.32,2.32,0,0,1,.92-1A3.13,3.13,0,0,1,61.08,30a2,2,0,0,1,1.55.62,2.75,2.75,0,0,1,.57,1.9Z"/><path class="cls-1" d="M72.52,38.06H69.94l-2.51-3.21v3.21H65.24V27.72h2.19v5.66l2.64-3.2h2l-3,3.5Z"/><path class="cls-1" d="M83.35,35a2.78,2.78,0,0,1-1.09,2.43,5.12,5.12,0,0,1-3.05.79,11.06,11.06,0,0,1-1.88-.13,6.59,6.59,0,0,1-1.27-.33V36a4.35,4.35,0,0,0,1.22.44,6.77,6.77,0,0,0,1.65.2,2.87,2.87,0,0,0,1.56-.3,1.13,1.13,0,0,0,.43-1,1.19,1.19,0,0,0-.31-.81,5.48,5.48,0,0,0-1.75-.92,4.59,4.59,0,0,1-1.78-1.19,2.89,2.89,0,0,1-.63-2,2.52,2.52,0,0,1,1-2,4.35,4.35,0,0,1,2.81-.82,7.51,7.51,0,0,1,1.57.14,6.67,6.67,0,0,1,1,.24v1.57c-.39-.09-.78-.18-1.17-.25a6.86,6.86,0,0,0-1.23-.11,2.44,2.44,0,0,0-1.35.29.89.89,0,0,0-.41.73A1.09,1.09,0,0,0,79,31a7.3,7.3,0,0,0,1.81.83,4.3,4.3,0,0,1,2,1.29A3,3,0,0,1,83.35,35Z"/><path class="cls-1" d="M87,28.42a1.16,1.16,0,1,1-2.31,0,1.16,1.16,0,1,1,2.31,0Zm0,9.64h-2.2V30.18H87Z"/><path class="cls-1" d="M95.84,38.06H93.65V32.53a.81.81,0,0,0-.27-.58,1,1,0,0,0-.75-.27,1.7,1.7,0,0,0-.83.2,2.33,2.33,0,0,0-.61.51v5.67H89V30.18H91.1l.05,1.25a2.26,2.26,0,0,1,.92-1A3.08,3.08,0,0,1,93.73,30a2,2,0,0,1,1.55.62,2.8,2.8,0,0,1,.56,1.9Z"/><path class="cls-1" d="M105.47,34.36a3.83,3.83,0,0,1-1,2.86,4.57,4.57,0,0,1-5.79,0,3.76,3.76,0,0,1-1.08-2.83v-.51A3.84,3.84,0,0,1,98.61,31a4.46,4.46,0,0,1,5.81,0,3.83,3.83,0,0,1,1,2.8Zm-2.25-.2v-.11a3.59,3.59,0,0,0-.49-2.19,1.53,1.53,0,0,0-1.21-.58,1.48,1.48,0,0,0-1.22.62,3.74,3.74,0,0,0-.47,2.15v.11a3.72,3.72,0,0,0,.46,2.22,1.49,1.49,0,0,0,1.23.55,1.59,1.59,0,0,0,1.2-.53A3.51,3.51,0,0,0,103.22,34.16Z"/><path class="cls-1" d="M114.05,31.22a2.43,2.43,0,0,1-.8,2,3.54,3.54,0,0,1-2.33.67h-1.4v4.19h-2.33V27.72h3.88a2.83,2.83,0,0,1,2.32.8,2.9,2.9,0,0,1,.66,1.88Zm-2.39.15v-1a1.1,1.1,0,0,0-.33-.88,1.71,1.71,0,0,0-1.08-.28h-.73v3.24h.85a1.52,1.52,0,0,0,.92-.28A1,1,0,0,0,111.66,31.37Z"/><path class="cls-1" d="M121.88,38.06h-2l0-1a1.91,1.91,0,0,1-.85.81,2.91,2.91,0,0,1-1.39.31,2.76,2.76,0,0,1-2-.65,2.69,2.69,0,0,1-.67-2v-.14a2.46,2.46,0,0,1,.9-2,3.8,3.8,0,0,1,2.41-.71,3.06,3.06,0,0,1,.9.13,1.57,1.57,0,0,1,.65.33v-.78a.81.81,0,0,0-.37-.68,1.66,1.66,0,0,0-1-.29,4.63,4.63,0,0,0-1.29.17,4.09,4.09,0,0,0-1,.4V30.55a8.63,8.63,0,0,1,1.21-.38,6.93,6.93,0,0,1,1.62-.16,3.2,3.2,0,0,1,2.26.69,2.91,2.91,0,0,1,.73,2.21Zm-2.1-2.65V35.2a1.57,1.57,0,0,0-.34-1.09,1.25,1.25,0,0,0-1-.37,1.34,1.34,0,0,0-1,.35,1.53,1.53,0,0,0-.36,1.13v.21a1.26,1.26,0,0,0,.38,1.07,1.64,1.64,0,0,0,1,.27,1.37,1.37,0,0,0,.9-.33A1.25,1.25,0,0,0,119.78,35.41Z"/><path class="cls-1" d="M129.82,37.65A3.89,3.89,0,0,1,129,38a3.83,3.83,0,0,1-1.34.24,4.48,4.48,0,0,1-3-1,3.76,3.76,0,0,1-1.13-3v-.33a3.87,3.87,0,0,1,1.11-2.89,4.13,4.13,0,0,1,3-1.08,4.45,4.45,0,0,1,1.35.19,2.27,2.27,0,0,1,.83.4V32a2.38,2.38,0,0,0-.79-.45,3,3,0,0,0-1.06-.18,1.78,1.78,0,0,0-1.53.72,3.26,3.26,0,0,0-.53,2v.15a3.42,3.42,0,0,0,.43,2,1.62,1.62,0,0,0,1.39.59,4,4,0,0,0,1.25-.2,2.33,2.33,0,0,0,.84-.4Z"/><path class="cls-1" d="M39.77,11.21h7.14l.53.7q-.69,4.92-7,9L39,19.34A19.45,19.45,0,0,0,42.7,17a12.5,12.5,0,0,0,2-2.28,5.57,5.57,0,0,0,.76-1.41.21.21,0,0,0,0-.22A.79.79,0,0,0,45,13H39.77Zm10.66,2.18v6.78a2.31,2.31,0,0,1-.85,1.91,3.15,3.15,0,0,1-2.12.57,14.61,14.61,0,0,1-3.3-.4l-.12-2c2.11.59,3.44.74,4,.45a1.48,1.48,0,0,0,.53-1.2V9.44c0-.19-.1-.28-.3-.28h-8V7.39h9.54a.52.52,0,0,1,.57.63v.71a25.9,25.9,0,0,0,2.85,6.15,23.13,23.13,0,0,0,5.38,5.29l-1.59,1.2A24.72,24.72,0,0,1,50.43,13.39ZM42.62,5.31l.26-1.81c1,.07,2.7.25,5.19.55a61.08,61.08,0,0,1,6.42,1L54.1,6.84A65.82,65.82,0,0,0,42.62,5.31ZM57.17,7.14l1.28,1.25a28.06,28.06,0,0,1-4.29,4.11L53,11.17A28.23,28.23,0,0,0,57.17,7.14Z"/><path class="cls-1" d="M68.34,21.06l-.24-.55c-.18-.32-.31-.6-.41-.81h-2.6c-.13,0-.19-.07-.19-.21V16.15c0-.12.06-.18.19-.18h15c.13,0,.2.06.2.18v3.34a.18.18,0,0,1-.2.21H77.38c-.09.25-.23.57-.41.95a2.58,2.58,0,0,0-.2.41h5.54v1.45H62.83V21.06Zm-5-7.29H81.9v1.37H63.32Zm12.74-3.32H74.14V9.17h1.92v-1H74.14V6.89h1.92V5.81H74.14V4.53h1.92V3.35H77.5V4.53h1.71V5.81H77.5V6.89h1.63V8.18H77.5v1h1.63v1.28H77.5v1h2.2c.18,0,.27-.08.27-.26V3.7h1.6v8.49a.59.59,0,0,1-.67.67H64.25a.59.59,0,0,1-.65-.67V3.7h1.61v7.53c0,.18.08.26.24.26h2.22v-1H65.84V9.17h1.83V8.09H65.92V6.81h1.75v-1H65.84V4.53h1.83V3.43h1.45v1.1h1.63V5.81H69.12v1h1.63V8.09H69.12V9.17h1.71v1.28H69.12v1h2.54V3.43h1.61v8.06h2.79Zm2.69,6.89H66.41s-.08,0-.06.06v.85s0,.07.06.08H78.75s.08,0,.08-.08V17.4S78.8,17.34,78.75,17.34Zm-8.68,3.72H75l.67-1.36H69.44C69.58,20,69.79,20.41,70.07,21.06Z"/><path class="cls-1" d="M91.64,4.88A17.13,17.13,0,0,1,88,8.24l-1.53-1a12.15,12.15,0,0,0,4.44-4h1.61a3.35,3.35,0,0,1-.15.35l0,0A34.32,34.32,0,0,0,95.28,6L94,7.18A29.68,29.68,0,0,1,91.64,4.88Zm-5,10.42,1.55-.47a17.56,17.56,0,0,1,1.06,3.93l-1.59.39A19.33,19.33,0,0,0,86.65,15.3Zm3.44,4.79V13.86H87V12.25h3.09V10.11H87.9V8.5H94v1.61H91.78v2.14h2.89v1.61H91.78V19.7L94.37,19l.34,1.65a70.38,70.38,0,0,1-7.47,1.64L87,20.64C88,20.49,89,20.3,90.09,20.09Zm3.16-5.24,1.42.51a30,30,0,0,1-1,3l-1.39-.59A18.47,18.47,0,0,0,93.25,14.85Zm8.41,1.9a25.51,25.51,0,0,0,3-2.63l1.1,1.2a22.61,22.61,0,0,1-3.26,2.85,14.94,14.94,0,0,0,3.66,3.28l-1.5,1.18a15.76,15.76,0,0,1-2.87-2.6,10.6,10.6,0,0,1-2.51-6.58H97.4v6.88c1.15-.35,2.14-.7,2.95-1l.55,1.61a30.2,30.2,0,0,1-6.08,1.85l-.47-1.65c.46-.12.91-.23,1.36-.32V4.35a.43.43,0,0,1,.49-.49h8.1a.44.44,0,0,1,.51.49v8.57a.48.48,0,0,1-.53.53h-3.34A10.79,10.79,0,0,0,101.66,16.75ZM97.4,7.85h5.72v-2a.36.36,0,0,0-.41-.39h-4.9c-.29,0-.42.15-.41.41Zm5.72,1.61H97.4v2.38h5.27a.4.4,0,0,0,.45-.45Z"/><path class="cls-1" d="M113.16,14.55c-.49.51-.94.94-1.36,1.31l-1.45-1.14a15.9,15.9,0,0,0,4.54-6l1.61.74a29.86,29.86,0,0,1-1.57,2.82V22.68h-1.77Zm1-11.11,1.65.63A15.66,15.66,0,0,1,112,9.87l-1.51-1A13.28,13.28,0,0,0,114.12,3.44ZM124.72,11h-7.45V9.26h12.48V11h-3.26V20.4a2.06,2.06,0,0,1-.93,1.79q-1.69,1.1-6.15-.21l0-1.85a26.92,26.92,0,0,0,3.12.73,2.57,2.57,0,0,0,2-.34.79.79,0,0,0,.18-.59Zm-6.8-6.65h11V6.15h-11Z"/><path class="cls-2" d="M29.22,14.61A14.61,14.61,0,1,1,14.61,0,14.61,14.61,0,0,1,29.22,14.61Z"/><rect class="cls-3" x="16.23" y="5.28" width="3.65" height="3.65"/><polygon class="cls-3" points="3.25 15.42 3.25 18.67 6.49 18.67 6.49 21.91 9.74 21.91 9.74 15.42 3.25 15.42"/><polygon class="cls-3" points="4.06 8.93 4.06 12.17 12.98 12.17 12.98 21.91 16.23 21.91 16.23 8.93 4.06 8.93"/><polygon class="cls-3" points="19.48 12.17 19.48 21.91 22.73 21.91 22.73 15.42 26.78 15.42 26.78 12.17 19.48 12.17"/></g></g></svg>