<svg xmlns="http://www.w3.org/2000/svg" viewBox="0 0 90 90"><defs><style>.cls-1{fill:none;}.cls-2{fill:#fff;}</style></defs><title>資產 4</title><g id="圖層_2" data-name="圖層 2"><g id="top_bar_effect" data-name="top bar effect"><rect class="cls-1" width="90" height="90"/><path class="cls-2" d="M57.52,23.33a.28.28,0,0,1,.08.26l-.36,2.09a.29.29,0,0,0,.42.3l1.88-1a.26.26,0,0,1,.27,0l1.88,1a.29.29,0,0,0,.42-.3l-.36-2.09a.28.28,0,0,1,.08-.26l1.52-1.48a.29.29,0,0,0-.16-.49l-2.1-.31a.3.3,0,0,1-.22-.16L59.93,19a.28.28,0,0,0-.51,0l-.94,1.9a.3.3,0,0,1-.22.16l-2.1.31a.29.29,0,0,0-.16.49Zm7.93,2.58L67,25.76a.18.18,0,0,1,.18.08l1,1.22a.22.22,0,0,0,.38-.09L69,25.42a.18.18,0,0,1,.13-.15l1.47-.59a.22.22,0,0,0,0-.39l-1.36-.81a.25.25,0,0,1-.11-.18L69,21.72a.22.22,0,0,0-.36-.15l-1.19,1.05a.24.24,0,0,1-.2,0l-1.54-.39a.22.22,0,0,0-.25.3L66.1,24a.2.2,0,0,1,0,.2l-.85,1.34A.23.23,0,0,0,65.45,25.91Zm10,3.5-.79-1.06a.17.17,0,0,1,0-.17L75,26.92a.18.18,0,0,0-.23-.23l-1.26.43a.17.17,0,0,1-.17,0L72.3,26.3a.18.18,0,0,0-.29.14l0,1.33a.18.18,0,0,1-.08.15l-1.08.77a.18.18,0,0,0,0,.32l1.27.4a.18.18,0,0,1,.12.12l.39,1.27a.19.19,0,0,0,.33.05l.76-1.09a.18.18,0,0,1,.15-.07h1.33A.18.18,0,0,0,75.42,29.41ZM54.11,25.57l-.85-1.34a.2.2,0,0,1,0-.2l.62-1.46a.22.22,0,0,0-.25-.3l-1.54.39a.24.24,0,0,1-.2,0l-1.19-1.05a.22.22,0,0,0-.36.15l-.1,1.58a.25.25,0,0,1-.11.18l-1.36.81a.22.22,0,0,0,0,.39l1.47.59a.18.18,0,0,1,.13.15L50.74,27a.22.22,0,0,0,.38.09l1-1.22a.18.18,0,0,1,.18-.08l1.58.15A.23.23,0,0,0,54.11,25.57Zm-10,4.13h1.33a.18.18,0,0,1,.15.07l.76,1.09a.19.19,0,0,0,.33-.05L47,29.53a.18.18,0,0,1,.12-.12l1.27-.4a.18.18,0,0,0,0-.32l-1.08-.77a.18.18,0,0,1-.08-.15l0-1.33a.18.18,0,0,0-.29-.14L46,27.09a.17.17,0,0,1-.17,0l-1.26-.43a.18.18,0,0,0-.23.23l.43,1.26a.17.17,0,0,1,0,.17l-.79,1.06A.18.18,0,0,0,44.08,29.7ZM82.29,79.92a2.09,2.09,0,0,1-2.13,1.91l-41.51,0H11.4A2,2,0,0,1,9.57,80.7a2.14,2.14,0,0,1-.19-.87,2,2,0,0,1,2-2v0h3.3a2,2,0,0,0,2-2V18.63a2,2,0,0,1,2-2h19a2,2,0,0,1,2,2V75.82a2,2,0,0,0,2,2H42a2,2,0,0,0,2-2v-38a2,2,0,0,1,2-2h6.21V33.42A1.84,1.84,0,0,1,54,31.58H65a1.84,1.84,0,0,1,1.84,1.84v2.44H73a2,2,0,0,1,2,2v38a2,2,0,0,0,2,2h3.3A2,2,0,0,1,82.29,79.92ZM21,26.53a.8.8,0,0,0,.8.81h4.08a.8.8,0,0,0,.8-.81V21.07a.8.8,0,0,0-.8-.8H21.79a.8.8,0,0,0-.8.8Zm0,19.2a.8.8,0,0,0,.8.81h4.08a.8.8,0,0,0,.8-.81V40.27a.8.8,0,0,0-.8-.8H21.79a.8.8,0,0,0-.8.8Zm0,19a.8.8,0,0,0,.8.81h4.08a.8.8,0,0,0,.8-.81V59.24a.8.8,0,0,0-.8-.81H21.79a.8.8,0,0,0-.8.81Zm14.07,4a.82.82,0,0,0-.81-.81H21.79a.81.81,0,0,0-.8.81v5.46a.8.8,0,0,0,.8.8H34.25a.81.81,0,0,0,.81-.8Zm0-9.48a.81.81,0,0,0-.81-.81H30.18a.81.81,0,0,0-.81.81v5.45a.81.81,0,0,0,.81.81h4.07a.81.81,0,0,0,.81-.81Zm0-9.48a.81.81,0,0,0-.81-.81H21.79a.8.8,0,0,0-.8.81v5.45a.8.8,0,0,0,.8.81H34.25a.81.81,0,0,0,.81-.81Zm0-9.49a.81.81,0,0,0-.81-.8H30.18a.81.81,0,0,0-.81.8v5.46a.81.81,0,0,0,.81.81h4.07a.81.81,0,0,0,.81-.81Zm0-9.57a.81.81,0,0,0-.81-.8H21.79a.8.8,0,0,0-.8.8v5.46a.8.8,0,0,0,.8.81H34.25a.81.81,0,0,0,.81-.81Zm0-9.63a.81.81,0,0,0-.81-.8H30.18a.81.81,0,0,0-.81.8v5.46a.81.81,0,0,0,.81.81h4.07a.81.81,0,0,0,.81-.81ZM53.92,68.72a.82.82,0,0,0-.81-.81H49a.82.82,0,0,0-.81.81v5.46A.81.81,0,0,0,49,75h4.07a.81.81,0,0,0,.81-.8Zm0-9.48a.81.81,0,0,0-.81-.81H49a.81.81,0,0,0-.81.81v5.45a.81.81,0,0,0,.81.81h4.07a.81.81,0,0,0,.81-.81Zm0-9.48a.81.81,0,0,0-.81-.81H49a.81.81,0,0,0-.81.81v5.45A.81.81,0,0,0,49,56h4.07a.81.81,0,0,0,.81-.81Zm0-9.49a.81.81,0,0,0-.81-.8H49a.81.81,0,0,0-.81.8v5.46a.81.81,0,0,0,.81.81h4.07a.81.81,0,0,0,.81-.81Zm8.39,28.45a.82.82,0,0,0-.82-.81H57.42a.81.81,0,0,0-.8.81v5.46a.8.8,0,0,0,.8.8h4.07a.81.81,0,0,0,.82-.8Zm0-9.48a.82.82,0,0,0-.82-.81H57.42a.8.8,0,0,0-.8.81v5.45a.8.8,0,0,0,.8.81h4.07a.82.82,0,0,0,.82-.81Zm0-9.48a.82.82,0,0,0-.82-.81H57.42a.8.8,0,0,0-.8.81v5.45a.8.8,0,0,0,.8.81h4.07a.82.82,0,0,0,.82-.81Zm0-9.49a.81.81,0,0,0-.82-.8H57.42a.8.8,0,0,0-.8.8v5.46a.8.8,0,0,0,.8.81h4.07a.82.82,0,0,0,.82-.81Zm8.38,28.45a.82.82,0,0,0-.81-.81H65.81a.81.81,0,0,0-.81.81v5.46a.8.8,0,0,0,.81.8h4.07a.81.81,0,0,0,.81-.8Zm0-9.48a.81.81,0,0,0-.81-.81H65.81a.81.81,0,0,0-.81.81v5.45a.81.81,0,0,0,.81.81h4.07a.81.81,0,0,0,.81-.81Zm0-9.48a.81.81,0,0,0-.81-.81H65.81a.81.81,0,0,0-.81.81v5.45a.81.81,0,0,0,.81.81h4.07a.81.81,0,0,0,.81-.81Zm0-9.49a.81.81,0,0,0-.81-.8H65.81a.8.8,0,0,0-.81.8v5.46a.81.81,0,0,0,.81.81h4.07a.81.81,0,0,0,.81-.81Z"/></g></g></svg>