<svg xmlns="http://www.w3.org/2000/svg" viewBox="0 0 90 90"><defs><style>.cls-1{fill:#fff;}.cls-2{fill:#bf8f81;opacity:0.9;}.cls-3{fill:none;}</style></defs><title>資產 10</title><g id="圖層_2" data-name="圖層 2"><g id="top_bar_effect" data-name="top bar effect"><path class="cls-1" d="M19.78,18.64c-.62,0-1.21,0-1.77,13.54,0,.65-.34,1.15-.64,1.15s-.64-.5-.64-1.17C16.24,18.64,15.58,18.64,15,18.64s-1.28,0-1.77,13.54c0,.65-.35,1.15-.64,1.15s-.64-.5-.64-1.18c-.57-13.51-1.15-13.51-1.77-13.51S9,18.64,7.51,36.5a7.49,7.49,0,0,0,5,7c0,.74-.14,2-.25,3.68C11.8,53.85,11,66.2,11,72.69a4,4,0,1,0,8,0c0-6.47-.85-18.79-1.31-25.41-.11-1.67-.2-3-.25-3.72a7.5,7.5,0,0,0,5-7.08C21,18.64,20.42,18.64,19.78,18.64Z"/><path class="cls-1" d="M82.49,72.61c0-6.57-.74-18.68-1.14-25.19-.13-2.14-.22-3.68-.23-4V19.22L81,19.07A2.37,2.37,0,0,0,79.16,18c-3.69,0-6,11.76-6,19.85,0,2.06,2.25,4.95,2.91,5.75,0,.75-.13,2-.25,3.63-.45,6.64-1.31,19-1.31,25.5a4,4,0,0,0,8,0Z"/><path class="cls-1" d="M46.72,27.92A24.11,24.11,0,1,0,70.83,52,24.11,24.11,0,0,0,46.72,27.92Zm0,43.63A19.53,19.53,0,1,1,66.25,52,19.55,19.55,0,0,1,46.72,71.55Z"/><path class="cls-1" d="M46.72,34.69A17.34,17.34,0,1,0,64.05,52,17.35,17.35,0,0,0,46.72,34.69Z"/><path class="cls-2" d="M41.39,54.86a.76.76,0,0,1,.2.64l-.88,5.17a.71.71,0,0,0,1,.75L46.39,59a.7.7,0,0,1,.66,0l4.65,2.44a.71.71,0,0,0,1-.75l-.88-5.17a.76.76,0,0,1,.2-.64l3.76-3.66a.72.72,0,0,0-.4-1.22l-5.19-.75a.75.75,0,0,1-.54-.39l-2.32-4.71a.71.71,0,0,0-1.28,0l-2.32,4.71a.75.75,0,0,1-.54.39L38,50a.72.72,0,0,0-.4,1.22Z"/><rect class="cls-3" width="90" height="90"/></g></g></svg>