<svg xmlns="http://www.w3.org/2000/svg" viewBox="0 0 90 90"><defs><style>.cls-1{fill:#fff;}.cls-2{fill:none;}</style></defs><title>資產 7</title><g id="圖層_2" data-name="圖層 2"><g id="top_bar_effect" data-name="top bar effect"><path class="cls-1" d="M39.27,34.71a6.51,6.51,0,1,1,6.51-6.51A6.5,6.5,0,0,1,39.27,34.71ZM62.5,27.14a2.64,2.64,0,0,0-2.86.8l-.7-.47.11-.17a2.65,2.65,0,0,0-4.49-2.81l0,.05L25.8,5.42c-.64-.43-1.88-.06-3.91,1.12s-3,2.06-2.86,3c.2,1.56,2,3.16,3,2.55,1.29-.74,3.52-3.67,3.59-5.34L53.9,25.54l-4.75,7.58-6.34,3.34c-3,1.36-5,4.82-3.46,6.93l7.49,12.22-3,9.46-9.6,10.84a3.23,3.23,0,0,0,.28,4.57,3.24,3.24,0,0,0,4.57-.28l10-11.35h0a3.36,3.36,0,0,0,.66-1.15l1-3V78.06a3.24,3.24,0,0,0,6.48,0V53.49a4.6,4.6,0,0,0-.34-1.59L50.13,38.59l2.12-1.11h0a2.18,2.18,0,0,0,1-.93l5.06-8.07.77.52-3.15,9.44-3.43.3,2.58,5.09L58,43.57a2.44,2.44,0,0,0,2.46-1.83l3.75-11.25A2.65,2.65,0,0,0,62.5,27.14Z"/><rect class="cls-2" width="90" height="90"/></g></g></svg>