<svg xmlns="http://www.w3.org/2000/svg" viewBox="0 0 90 90"><defs><style>.cls-1{fill:#fff;}.cls-2{fill:none;}</style></defs><title>資產 5</title><g id="圖層_2" data-name="圖層 2"><g id="top_bar_effect" data-name="top bar effect"><path class="cls-1" d="M19.68,79a8.61,8.61,0,1,1,8.6-8.61A8.62,8.62,0,0,1,19.68,79Zm0-11.84a3.24,3.24,0,1,0,3.24,3.23A3.24,3.24,0,0,0,19.68,67.2Z"/><path class="cls-1" d="M66.54,79a8.61,8.61,0,1,1,8.6-8.61A8.62,8.62,0,0,1,66.54,79Zm0-11.84a3.24,3.24,0,1,0,3.24,3.23A3.24,3.24,0,0,0,66.54,67.2Z"/><path class="cls-1" d="M59.26,30.39a4.47,4.47,0,1,1-4.47-4.47A4.48,4.48,0,0,1,59.26,30.39Z"/><path class="cls-1" d="M80.16,57A22.62,22.62,0,0,0,82,47.61l-1.83-1.7V41.25a1.1,1.1,0,0,0-1.1-1.1H76.57V38.24c0-.7.19-.83.58-.9l4.26-.81c.64-.14.64-.63.51-1.41s-.28-1.54-1.33-1.75-3.33,1.28-3.7,1.56-1.2.86-1.2,1.28v3.94h-1v-5.8c0-.68.2-.8.58-.88l4.26-.81c.64-.13.64-.63.51-1.41s-.28-1.53-1.33-1.75S75.38,30.78,75,31.06s-1.19.86-1.19,1.28v7.81h-.68V30.24c0-.68.2-.81.58-.88L78,28.55c.64-.14.64-.63.5-1.41s-.27-1.53-1.32-1.75S73.82,26.67,73.44,27s-1.19.86-1.19,1.28V40.15h-.87V25.8a.18.18,0,0,1,.15-.19,10.27,10.27,0,0,0,3.16-1.19c1.93-1,3.33-2.32,3.06-2.81s-2.09-2.65-5.13-1c-2.27,1.23-2.42,3-2.21,4.05a5.43,5.43,0,0,1,.09.81V40.15h-.8a1.1,1.1,0,0,0-1.1,1.1V53.87H67.1V19.45h1.82a2,2,0,1,0,0-4H25a2,2,0,1,0,0,4H26L18.16,51.26c-3.56.45-8.53,3.34-9.5,5.89A88.48,88.48,0,0,0,6,67c-.44,1.83,1.64,3.84,3.16,4.45,0-.33,0-.66,0-1A10.62,10.62,0,1,1,29.15,75.2H57.06a10.61,10.61,0,1,1,20.09-4.77,10.23,10.23,0,0,1-.29,2.43h0c4.26,0,4.42-3.76,4.58-5.56l-1.3-1.8ZM60.5,44.56A2.23,2.23,0,0,0,58,45.76l.45-4.31a4.3,4.3,0,1,0-8.55-.9L49.56,44h-8.1a1.85,1.85,0,0,0,0,3.7h7.71l-.46,4.46H45.2L37.5,61a2.46,2.46,0,0,0,3.71,3.23l6.16-7.07-1.89,9.92h-8L28.16,52.72l3.17-4.52,3.54-.63L37,49.08a1.27,1.27,0,0,0,.72.22,1.23,1.23,0,0,0,1-.53,1.26,1.26,0,0,0-.3-1.75l-11-7.67a1.25,1.25,0,1,0-1.44,2l2.15,1.5.62,3.55-3.32,4.74H21.4l7.86-31.74H64V53.87H60.78l1.44-6.65A2.24,2.24,0,0,0,60.5,44.56Z"/><rect class="cls-2" width="90" height="90"/></g></g></svg>