<svg xmlns="http://www.w3.org/2000/svg" viewBox="0 0 90 90"><defs><style>.cls-1{fill:#fff;}.cls-2{fill:none;}</style></defs><title>資產 11</title><g id="圖層_2" data-name="圖層 2"><g id="top_bar_effect" data-name="top bar effect"><path class="cls-1" d="M52.65,34.23a7.15,7.15,0,0,0,7.15-7.15,7.06,7.06,0,0,0-.41-2.39l-.09-.25A3.85,3.85,0,1,0,53.58,20a7,7,0,0,0-.93-.06,7.15,7.15,0,0,0,0,14.3Z"/><path class="cls-1" d="M37.3,53.81a3,3,0,0,0,1-.18l9.85-3.77a2.72,2.72,0,0,0,.94-.59l3.6-3.42a.64.64,0,0,1,0,.09c-1,3.36,3.06,4.55,4.35,7,.37.68.71,1.7,1,2.45l13.51-.25c-1.1-2.63-5-13.1-6.79-17.18A4.33,4.33,0,0,0,63.57,36a3.94,3.94,0,0,0-1.91-.6,18.07,18.07,0,0,0-6,.77l-.37.1a3,3,0,0,0-.32.09,3.08,3.08,0,0,0-1.19.66L46.1,44.31A3.41,3.41,0,0,1,45,45l-8.71,3.33a2.83,2.83,0,0,0,1,5.48Z"/><path class="cls-1" d="M75.65,67.83V56.77H74.08l-32.42,0a2.77,2.77,0,0,0-2.45,1l-9.33,9.46H16.16a3.56,3.56,0,1,0-.06,7.11H31.37A3.59,3.59,0,0,0,33.9,73.3l1.83-1.48a16.78,16.78,0,0,0-.3,3.78,1.42,1.42,0,0,0,1.42,1.34H74.31a1.42,1.42,0,0,0,1.42-1.4l.06-7.1A1.43,1.43,0,0,0,75.65,67.83Zm-2.74,6.28H38.28a6.94,6.94,0,0,1,1.15-3.88,1.15,1.15,0,0,1,.9-.39H73Z"/><circle class="cls-1" cx="27.61" cy="57.58" r="7.01"/><rect class="cls-2" width="90" height="90"/></g></g></svg>