<svg xmlns="http://www.w3.org/2000/svg" viewBox="0 0 90 90"><defs><style>.cls-1{fill:#fff;}.cls-2{fill:none;}</style></defs><title>資產 6</title><g id="圖層_2" data-name="圖層 2"><g id="top_bar_effect" data-name="top bar effect"><path class="cls-1" d="M84,68H68a1.86,1.86,0,0,1,0-3.72H84A1.86,1.86,0,0,1,84,68Zm.72,9.24a1.86,1.86,0,0,0-1.86-1.86h-16a1.86,1.86,0,0,0,0,3.72h16A1.86,1.86,0,0,0,84.73,77.28Zm-1.29-5.54a1.86,1.86,0,0,0-1.86-1.86h-16a1.86,1.86,0,1,0,0,3.72h16A1.87,1.87,0,0,0,83.44,71.74Z"/><path class="cls-1" d="M17.79,36.73,62,22.17a1.37,1.37,0,0,1,1.73.87l4.5,13.69H64.18L62.72,32.3a7.59,7.59,0,0,1-7.65-3.82L30,36.73ZM14.08,61.21,10.25,49.55a7.61,7.61,0,0,0,3.83-6V40.43a3.68,3.68,0,0,1,1.53-3L4.8,41a1.37,1.37,0,0,0-.87,1.73L14.08,73.6Z"/><path class="cls-1" d="M70.77,58.57A3.59,3.59,0,1,1,67.18,55,3.56,3.56,0,0,1,70.77,58.57ZM25,58.57A3.6,3.6,0,1,0,28.63,55,3.56,3.56,0,0,0,25,58.57Zm37.75,18.5a3.9,3.9,0,0,1,.59-2H26.27a7.62,7.62,0,0,0-6-5.89V48.88a7.61,7.61,0,0,0,6-6H69.44a7.6,7.6,0,0,0,6.08,6v13.3h3.89V40.43A1.37,1.37,0,0,0,78,39.06H17.78a1.36,1.36,0,0,0-1.36,1.37v37a1.36,1.36,0,0,0,1.36,1.37H63.09A4.11,4.11,0,0,1,62.79,77.07ZM47.91,45.64c6.53,0,11.82,5.86,11.82,13.1S54.44,71.83,47.91,71.83,36.08,66,36.08,58.74,41.37,45.64,47.91,45.64Zm1.17,6.91V50.91H46.61V52.7c-2.49.44-3.86,1.83-3.86,3.58,0,1.94,1.68,2.92,4.06,3.59,1.61.45,2.27.81,2.27,1.41s-.79.88-1.9.88a9.87,9.87,0,0,1-3.84-.84L42.64,64a11.78,11.78,0,0,0,3.86.83v1.79H49v-2c2.62-.42,4.06-1.88,4.06-3.67s-1-2.85-3.75-3.65c-1.84-.56-2.58-.93-2.58-1.41s.39-.83,1.68-.83a8.81,8.81,0,0,1,3.3.66l.7-2.56A9.25,9.25,0,0,0,49.08,52.55Z"/><rect class="cls-2" width="90" height="90"/></g></g></svg>