<svg xmlns="http://www.w3.org/2000/svg" viewBox="0 0 90 90"><defs><style>.cls-1{fill:#fff;}.cls-2{fill:none;}</style></defs><title>parking資產 19</title><g id="圖層_2" data-name="圖層 2"><g id="top_bar_effect" data-name="top bar effect"><path class="cls-1" d="M68,34.67a23.78,23.78,0,0,0-12.6-12.6A23.64,23.64,0,0,0,23.93,51.78a25.3,25.3,0,0,0,3.74,6.8c2.22,2.88,6.58,8,10.38,12.34,4,4.43,7.34,8,7.34,8a1,1,0,0,0,1.67,0s3.37-3.58,7.34-8c3.8-4.37,8.16-9.46,10.38-12.34a25.3,25.3,0,0,0,3.74-6.8A23.53,23.53,0,0,0,68,34.67ZM58,55.64a16.62,16.62,0,1,1,4.87-11.76A16.56,16.56,0,0,1,58,55.64Z"/><path class="cls-1" d="M56.09,37.26a7,7,0,0,0-1.74-2.42,7.54,7.54,0,0,0-2.73-1.55,11.24,11.24,0,0,0-3.54-.53H39.17V55.14h4.61V48.22h3.85a12,12,0,0,0,3.49-.5A8.62,8.62,0,0,0,54,46.25a7,7,0,0,0,2-2.45,7.64,7.64,0,0,0,.72-3.39A7.93,7.93,0,0,0,56.09,37.26ZM50.89,43a4.69,4.69,0,0,1-3.13,1h-4V37h4a5,5,0,0,1,3.13.88A3,3,0,0,1,52,40.49,3.09,3.09,0,0,1,50.89,43Z"/><rect class="cls-2" width="90" height="90"/></g></g></svg>