<svg xmlns="http://www.w3.org/2000/svg" viewBox="0 0 90 90"><defs><style>.cls-1{fill:#fff;}.cls-2{fill:none;}</style></defs><title>資產 16</title><g id="圖層_2" data-name="圖層 2"><g id="top_bar_effect" data-name="top bar effect"><path class="cls-1" d="M66.31,55.78c-2,.33-8.23,2-10.51,2.57a5.43,5.43,0,0,1-1.12,2.87,5.92,5.92,0,0,1-4.93,2.27c-3,0-10.25.49-10.51.13-.43-.6,2.73-2.79,10.51-2.79a3.5,3.5,0,0,0,2.55-.93c.57-.58,1.53-2.09.4-3A5.54,5.54,0,0,0,50.32,56H22.17a1.73,1.73,0,0,0-1.64-1.24H11.19c-3.09,0-3.56,2.27-3.56,3.63,0,3.67,1,6.66,3.43,10.34a20.45,20.45,0,0,0,4.24,4.89,6.52,6.52,0,0,0,4.26,1.6h2.62c3.29,0,5.34-.09,6-1.72a5.17,5.17,0,0,0-.27-2.78c-1.2-3.87,3.14-2.42,6-1.82s7.66,2.44,12.74,1.8c9.31-1.18,20.59-10.78,21.36-11s2-1.55,1.77-2.77S68,55.5,66.31,55.78Zm-44.13,16H19.56a3,3,0,0,1-2-.75A17,17,0,0,1,14,66.83c-2.35-3.58-2.84-6-2.86-8.43v-.12h6.32v.13a17.91,17.91,0,0,0,3.43,10.34,21.62,21.62,0,0,0,2.3,3Z"/><path class="cls-1" d="M76,49.29H73.24A29.88,29.88,0,0,0,47.62,21a3.44,3.44,0,0,0,.05-.45,4.27,4.27,0,0,0-8.54,0c0,.15,0,.3,0,.45A29.87,29.87,0,0,0,13.56,49.29H10.8a1.57,1.57,0,1,0,0,3.12H76a1.57,1.57,0,1,0,0-3.12ZM24,46.23H17a26.62,26.62,0,0,1,21.8-22.07C33.17,26.31,25.49,33.4,24,46.23Z"/><rect class="cls-2" width="90" height="90"/></g></g></svg>